<svg width="334" height="222" fill="none" xmlns="http://www.w3.org/2000/svg"><path fill-rule="evenodd" clip-rule="evenodd" d="M171.166.312c18.021-.36 36.291-.725 54.143.853 6.351.561 12.616 1.743 18.817 2.913 3.477.656 6.933 1.308 10.374 1.845 1.241.193 2.489.38 3.741.566 7.616 1.136 15.386 2.295 22.801 5.32 11.886 4.848 18.179 12.64 25.368 21.541l.001.002c1.164 1.44 2.351 2.91 3.589 4.402 12.287 14.798 23.908 32.73 23.908 53.343 0 14.063-2.723 26.593-8.803 39.23l-.476.989c-5.13 10.67-10.974 22.825-19.263 31.563-.935.986-1.88 2.073-2.872 3.215l-.037.042c-.973 1.121-1.989 2.29-3.045 3.415-2.127 2.267-4.512 4.46-7.265 5.839-3.018 1.513-6.162 2.751-9.353 3.832a118.264 118.264 0 01-3.085 3.061c-9.177 8.771-20.791 15.22-32.897 20.491-9.236 4.022-18.839 7.39-27.913 10.572l-.002.001c-2.806.984-5.562 1.95-8.24 2.912-19.67 7.069-41.45 4.866-61.352 2.233-15.375-2.034-30.365-6.21-45.183-10.504-3.618-.093-7.236-.184-10.856-.269-9.132-.213-17.655-3.374-25.78-6.706-2.149-.881-4.405-1.57-6.743-2.284-.57-.174-1.146-.35-1.726-.53-2.911-.905-5.896-1.918-8.634-3.422-.472-.259-1.01-.471-1.63-.684-.215-.074-.466-.156-.73-.243l-.004-.001c-.412-.135-.853-.28-1.236-.419-1.354-.49-2.905-1.208-3.992-2.733-1.734-2.433-3.443-4.422-5.668-6.407-4.343-3.876-8.056-8.603-11.625-13.147a310.278 310.278 0 00-3.206-4.036c-11.288-13.888-17.046-29.645-17.046-47.661 0-1.216.036-2.418.102-3.61C1.847 109.792-.468 103.12.08 95.306c.74-10.517 3.56-20.34 7.887-29.793.7-1.53 1.219-3.176 1.773-4.934.25-.791.506-1.605.79-2.442.878-2.59 1.992-5.291 3.943-7.432 6.995-7.671 16.555-13.465 25.446-18.852 2.345-1.422 4.644-2.815 6.836-4.206 1.64-1.041 3.284-2.12 4.94-3.205 5.38-3.53 10.885-7.142 16.823-9.837 16.056-7.286 32.49-9.889 48.98-9.596C129.038 2.28 141.072.68 152.436.605c6.194-.042 12.447-.167 18.73-.293zm-65.815 8.041c-12.024.93-23.924 3.688-35.594 8.984-5.705 2.59-10.942 6.024-16.28 9.525a408.183 408.183 0 01-5.114 3.318c-2.316 1.47-4.699 2.915-7.098 4.37-8.845 5.364-17.903 10.859-24.575 18.177-1.511 1.658-2.466 3.857-3.319 6.373-.236.697-.467 1.43-.704 2.179-.58 1.841-1.191 3.776-1.973 5.482-4.203 9.181-6.912 18.653-7.621 28.755-.379 5.398.745 10.231 2.781 14.763.236-1.919.526-3.817.839-5.703.275-1.66.567-3.299.858-4.934.562-3.159 1.12-6.3 1.555-9.545 1.333-9.96 6.13-20.748 11.536-28.917 6.303-9.523 15.406-16.553 25.178-22.375 6.249-3.724 12.862-7.001 19.23-10.119 3.599-1.963 7.037-4.018 10.478-6.074a518.215 518.215 0 016.209-3.67c5.782-3.344 11.735-6.484 18.336-8.822a160.853 160.853 0 015.278-1.767zm-22.172 13.22l.06-.034c5.722-3.31 11.49-6.344 17.836-8.591a165.363 165.363 0 0116.746-4.933c7.3.15 14.631.876 21.971 2.024-8.844 1.146-17.685 2.313-26.524 3.48h-.001c-4.546.6-9.091 1.2-13.636 1.796a1.5 1.5 0 10.391 2.975c4.549-.598 9.097-1.198 13.645-1.798a8414.52 8414.52 0 0135.909-4.687c13.252 2.692 26.438 6.519 39.451 10.557-3.882-.028-7.763-.035-11.64-.042l-2.433-.005c-11.386-.023-22.732-.083-34.027-.693-3.721-.2-7.432-.38-11.14-.532a1.5 1.5 0 00-1.781-.31c-.15.076-.302.15-.456.222-7.151-.27-14.3-.43-21.506-.43-.719 0-1.447-.005-2.18-.01h-.001c-2.954-.02-6.01-.042-9.03.265-1.304.132-2.817.204-4.47.278l-.386.017a143.88 143.88 0 00-4.776.264 59.99 59.99 0 00-2.022.188zm75.208-10.9c13.872 3.272 27.649 7.573 41.102 11.827 3.215.067 6.429.16 9.64.292 6.383.262 12.82 1.192 19.188 2.132l.614.09c6.186.914 12.307 1.818 18.388 2.155 5.454.302 12.525 3.226 17.185 5.862 10.554 5.97 23.426 14.08 29.229 26.364 1.043 2.208 2.331 4.582 3.703 7.11l.002.004.001.001.545 1.005c1.565 2.89 3.197 5.952 4.603 9.078 2.791 6.209 4.81 12.923 3.459 19.313-1.131 5.355-3.28 10.287-5.493 15.069.103 3.867.015 7.745-.071 11.545v.004c-.057 2.51-.114 4.984-.114 7.399 0 1.692.045 3.471.091 5.287.017.699.035 1.403.05 2.11 2.858-2.921 5.191-6.332 6.618-10.167.744-2 1.373-4.034 2.01-6.113l.074-.242c.61-1.989 1.232-4.018 1.962-6.028.838-2.31 1.279-4.772 1.644-7.362.091-.649.179-1.311.267-1.98.256-1.953.522-3.971.929-5.924.483-2.32.597-4.806.581-7.388-.007-1.23-.044-2.465-.08-3.709l-.005-.178a130.309 130.309 0 01-.075-3.89c0-.829.022-1.651.044-2.47v-.001c.043-1.586.086-3.163-.033-4.76-.177-2.366-.703-4.381-1.932-5.877-1.526-1.859-2.83-3.826-4.066-5.76-.25-.39-.496-.777-.74-1.162l-.004-.006-.001-.001c-.979-1.544-1.935-3.049-2.98-4.513-1.444-2.02-2.111-3.982-2.803-6.014l-.003-.008-.148-.434c-.493-1.442-1.529-2.638-2.738-4.032l-.518-.6c-1.066-1.246-2.061-2.626-3.015-3.95-.3-.416-.597-.827-.89-1.227-1.257-1.713-2.5-3.277-3.939-4.534-3.202-2.797-7.157-4.381-11.424-6.014l-.534-.204c-4.033-1.54-8.323-3.179-11.955-6.044-1.629-1.285-3.751-2.185-6.112-2.902-1.709-.519-3.447-.917-5.157-1.308-.668-.153-1.333-.305-1.989-.463-5.368-1.29-10.819-2.828-16.061-4.681-.76-.269-1.515-.537-2.266-.805-6.222-2.215-12.17-4.333-18.555-5.5-4.396-.803-8.777-1.58-13.175-2.248-5.519-.838-11.317-.453-17.072-.008-.699.054-1.37.207-2.139.4-.045.01-.091.022-.137.034l-.105.026c-.684.173-1.461.369-2.283.48-2.581.348-5.287.292-7.824.24-.889-.02-1.758-.037-2.594-.037h-5.797c-2.091 0-4.32.319-6.533.635l-.569.082zm139.166 129.36c-.011-1.528-.051-3.049-.09-4.575v-.003c-.047-1.831-.095-3.669-.095-5.532 0-2.571.059-5.146.116-7.716.036-1.59.072-3.178.094-4.76-.154.349-.306.699-.456 1.049-.81 1.891-1.305 3.981-1.836 6.223v.001c-.096.407-.194.819-.295 1.235-.637 2.634-1.403 5.431-2.903 7.842-2.333 3.75-5.453 7.423-8.308 10.784-.53.624-1.05 1.237-1.555 1.838-8.99 10.699-21.787 17.802-35.432 22.666-13.653 4.867-28.267 7.533-41.007 9.285-5.507.758-11.102 1.71-16.748 2.672-12.769 2.174-25.793 4.392-38.623 4.491l-.55.004c-15.605.122-31.285.244-46.933-.87-12.439-.886-23.377-3.435-33.541-7.777l.37.402.169.183v.001c.473.511.96 1.038 1.43 1.58 1.058 1.221 2.085 2.583 2.841 4.263l-.001-.003v-.001l.003.003c.019.024.145.178.6.381.496.222 1.168.408 1.951.563.773.153 1.58.263 2.33.361l.237.031c.63.081 1.262.163 1.707.26 1.219.267 2.391.54 3.552.811l.004.001.001.001c1.504.351 2.988.697 4.528 1.018 3.605.75 7.176 1.333 10.807 1.661 1.631.147 3.208.485 4.69.808l.148.032.001.001c1.453.317 2.814.613 4.193.763 3.32.361 6.665.868 9.979 1.37 1.459.221 2.912.441 4.354.647 4.752.68 9.447 1.221 14.122 1.221 3.234 0 6.46.087 9.665.177l.482.014c3.048.086 6.075.172 9.103.188 2.675.014 5.333-.171 8.053-.365l.171-.012c2.647-.189 5.354-.382 8.091-.382 1.999 0 3.959.191 5.838.373l.175.017c1.957.19 3.832.366 5.732.348l2.071-.019h.016c8.069-.074 16.103-.148 24.098-.694 1.449-.099 2.731-.253 4.027-.605 3.794-1.029 7.483-2.292 11.224-3.573 1.829-.625 3.67-1.256 5.542-1.865 2.488-.81 4.855-1.941 7.317-3.126l.119-.057c2.396-1.152 4.887-2.351 7.523-3.223 11.187-3.7 21.149-11.541 30.406-19.307 1.428-1.197 2.571-2.573 3.721-4.078.263-.344.528-.698.799-1.059l.007-.009.001-.002c.886-1.181 1.824-2.433 2.883-3.618 4.063-4.544 8.524-8.45 13.082-12.338zM61.645 173.157a39.337 39.337 0 014.283 4.343 51.76 51.76 0 001.628 1.826l.169.183v.001c.477.516.93 1.007 1.367 1.51.969 1.118 1.787 2.227 2.374 3.53.443.984 1.355 1.549 2.11 1.887.8.358 1.727.596 2.595.768.88.174 1.775.295 2.525.393l.206.027c.686.089 1.177.152 1.485.22 1.113.243 2.267.512 3.434.784l.002.001c1.562.364 3.145.732 4.678 1.052 3.688.767 7.377 1.371 11.15 1.711 1.418.128 2.822.426 4.32.752l.201.044c1.411.308 2.913.636 4.455.804 3.256.354 6.498.845 9.78 1.342h.001c1.474.223 2.957.448 4.453.662 4.79.685 9.653 1.251 14.546 1.251 3.186 0 6.372.085 9.58.176l.492.014c3.04.086 6.099.173 9.162.189 2.807.015 5.577-.18 8.282-.373l.126-.009c2.679-.19 5.294-.377 7.923-.377 1.851 0 3.684.178 5.604.365l.119.011c1.94.189 3.968.382 6.051.362l2.099-.02c8.052-.073 16.173-.147 24.262-.7 1.534-.105 3.037-.276 4.608-.703 3.886-1.054 7.735-2.371 11.53-3.67h.001a378.481 378.481 0 015.377-1.81c2.709-.882 5.253-2.103 7.689-3.275l.039-.019c2.452-1.179 4.794-2.306 7.245-3.116 11.8-3.903 22.16-12.112 31.392-19.857 1.686-1.414 2.99-3.003 4.177-4.556.301-.394.591-.781.877-1.163.869-1.158 1.701-2.267 2.666-3.347 3.34-3.736 6.975-7.042 10.795-10.342-.166 4.514-.776 8.837-2.477 12.789-3.081 7.161-8.301 13.962-13.885 19.797-3.504 1.158-7.092 2.141-10.708 3.131a378.485 378.485 0 00-6.428 1.801c-6.602 1.934-12.503 5.474-18.2 8.892l-.336.201c-5.862 3.516-11.525 6.871-17.803 8.587-24.16 6.606-50.055 6.605-75.162 6.603h-1.139c-14.735 0-29.382-.379-44.073-.76h-.002l-2.701-.07-3.13-.908c-3.12-.907-6.242-1.814-9.37-2.704-24.658-7.012-47.398-21.271-65.064-40.494-7.648-8.321-11.41-16.62-12.833-25.518-.418-2.619-.635-5.297-.686-8.051a405.457 405.457 0 002.188 2.712v.001c2.015 2.488 3.997 4.935 5.832 7.431l1.274 1.734c3.82 5.208 7.627 10.399 12.047 15.271.672.741 1.418 1.47 2.18 2.183a1.5 1.5 0 00.687.726l.229.118c.2.184.401.366.6.547.575.522 1.139 1.034 1.665 1.533 1.755 1.662 3.237 3.292 4.14 5.143a1.5 1.5 0 002.817-.959c4.74 3.606 9.535 6.731 14.48 9.393zm1.712-2.487c-2.892-2.483-6.059-4.591-9.337-6.443-2.29-1.294-4.443-2.783-6.655-4.313l-.2-.138-.445-.308c-.403-.278-.808-.557-1.216-.835a146.033 146.033 0 01-4.703-4.009c-13.873-12.328-20.654-26.733-20.654-45.408 0-12.657 4.232-25.183 11.837-35.208a412.082 412.082 0 013.404-4.404l.001-.001v-.001c5.02-6.434 10.392-13.323 13.778-20.845 1.378-3.062 3.256-4.572 5.471-5.377 2.325-.845 5.102-.95 8.369-.95.325 0 .626-.103.872-.279 7.009-.419 13.374-3.205 19.467-5.873.789-.345 1.573-.688 2.354-1.024 6.378-2.745 13.347-4.096 20.325-5.013.652-.086 1.099-.235 1.517-.452.129-.068.266-.148.364-.206l.043-.025.027-.015c.111-.065.219-.124.353-.186.574-.265 1.253-.419 2.062-.533a37.42 37.42 0 011.162-.14l.085-.01c.426-.046.88-.097 1.327-.166 1.779-.274 3.703-.941 5.316-1.501.247-.086.487-.17.718-.248 1.181-.404 2.404-.72 3.693-1.054h.001c.455-.118.918-.238 1.391-.364 1.334-.358 2.715-.763 4.04-1.315a834.8 834.8 0 0112.641.592c11.383.614 22.8.674 34.182.698l2.413.004h.009c7.224.013 14.431.026 21.621.17l1.673.53c6.42 2.031 12.789 4.047 19.095 5.933 2.555.764 5.147 1.51 7.753 2.261 10.485 3.02 21.224 6.113 30.929 10.74 12.059 5.748 22.329 13.785 28.244 26.796 4.018 8.84 7.953 18.343 9.749 27.763.676 3.541.984 7.16 1.103 10.824l-.343.737-.057.123c-.929 1.993-1.872 4.017-2.772 6.118-.921 2.151-1.483 4.534-2.01 6.767h-.001c-.093.395-.185.785-.278 1.168-.636 2.631-1.314 5.001-2.535 6.962-2.204 3.544-5.153 7.017-8.011 10.385-.539.634-1.074 1.265-1.601 1.892-8.517 10.136-20.767 17.002-34.142 21.77-13.368 4.766-27.747 7.398-40.409 9.139-5.715.786-11.426 1.759-17.131 2.732-12.65 2.155-25.272 4.306-37.855 4.403l-.496.004c-15.642.122-31.221.243-46.75-.863-15.083-1.074-27.873-4.645-39.788-11.004zm237.197-29.261c4.027-3.549 7.44-7.984 9.385-13.21.779-2.094 1.431-4.208 2.066-6.279l.067-.217v-.002c.616-2.007 1.218-3.971 1.921-5.908.949-2.615 1.424-5.331 1.795-7.966.1-.71.192-1.41.283-2.101.252-1.921.497-3.776.879-5.61.547-2.627.66-5.36.644-8.018-.008-1.266-.045-2.532-.081-3.767l-.006-.19a131.421 131.421 0 01-.073-3.803c0-.663.019-1.397.039-2.17v-.004c.045-1.674.094-3.537-.037-5.28-.195-2.61-.8-5.36-2.605-7.557-1.407-1.713-2.631-3.555-3.857-5.472l-.712-1.119-.006-.01c-.984-1.55-1.995-3.143-3.093-4.68-1.18-1.652-1.716-3.223-2.433-5.323l-.123-.362c-.699-2.04-2.164-3.718-3.338-5.061-.166-.19-.327-.374-.478-.55-.977-1.142-1.868-2.377-2.804-3.676-.314-.435-.632-.877-.961-1.325-1.28-1.743-2.683-3.532-4.385-5.019-3.661-3.197-8.112-4.944-12.325-6.556l-.386-.148c-4.151-1.587-8.053-3.079-11.317-5.654-2.058-1.623-4.593-2.655-7.098-3.416-1.817-.552-3.715-.987-5.459-1.386-.644-.147-1.267-.29-1.857-.432-5.294-1.273-10.642-2.783-15.763-4.593-.756-.267-1.51-.535-2.264-.804-6.194-2.206-12.379-4.41-19.018-5.623-4.403-.804-8.82-1.588-13.263-2.263-5.907-.897-12.035-.476-17.754-.033-.972.075-1.857.286-2.635.48l-.242.06c-.703.177-1.313.33-1.957.417-2.332.315-4.687.266-7.149.216-.939-.02-1.893-.04-2.868-.04h-5.797c-2.325 0-4.874.366-7.141.69-.74.107-1.45.209-2.112.292-2.184.275-4.367.551-6.55.83-1.449-.292-2.899-.57-4.348-.832-5.335-.968-10.682-1.737-16.032-2.247 7.792-1.299 15.628-2.033 23.151-2.083 6.283-.043 12.591-.169 18.907-.295 17.974-.359 36.005-.719 53.681.843 6.229.551 12.208 1.681 18.292 2.831 3.509.664 7.053 1.334 10.7 1.903 1.278.2 2.548.39 3.812.578 7.634 1.142 15.006 2.244 22.06 5.122 11.124 4.538 16.914 11.692 24.111 20.586l.002.002.003.004a460.376 460.376 0 003.667 4.491c12.205 14.699 23.216 31.926 23.216 51.427 0 13.634-2.631 25.716-8.507 37.929l-.388.807c-5.198 10.81-10.865 22.592-18.823 30.982-.988 1.041-1.977 2.179-2.961 3.311l-.019.023-.002.002-.001.001c-.984 1.133-1.967 2.264-2.982 3.346-2.057 2.191-4.151 4.072-6.422 5.21a59.002 59.002 0 01-3.573 1.642c4.23-4.971 8.041-10.511 10.552-16.348 1.936-4.5 2.566-9.316 2.727-14.077a83.61 83.61 0 00.045-2.516zM106.044 23.572c4.204 0 8.39.055 12.571.155-.197.062-.392.127-.586.193l-.764.263c-1.639.567-3.27 1.131-4.756 1.36-.374.058-.768.102-1.199.15l-.094.01c-.396.043-.821.09-1.246.15-.914.13-1.931.334-2.898.78a7.113 7.113 0 00-.6.313l-.118.07-.023.013c-.075.044-.119.07-.175.099-.078.04-.183.094-.522.139-7.071.93-14.363 2.323-21.12 5.231-.79.34-1.575.683-2.354 1.023-6.69 2.92-13.022 5.684-20.078 5.684-.299 0-.578.088-.812.239-2.649.047-5.287.255-7.657 1.116-2.996 1.09-5.48 3.185-7.181 6.966-3.223 7.159-8.311 13.687-13.314 20.106a442.693 442.693 0 00-3.524 4.563c-8 10.546-12.447 23.708-12.447 37.021 0 8.277 1.284 15.774 3.862 22.645-.991-1.252-2-2.497-3.003-3.736l-.002-.002-.002-.004c-.5-.616-.997-1.23-1.49-1.844a208.898 208.898 0 01-2.938-3.718c.235-5.263.97-10.822 1.984-16.788.32-1.886.622-3.742.919-5.569 2.51-15.462 4.683-28.844 15.197-40.775l1.38-1.567c4.62-5.254 9.212-10.472 14.215-15.223 2.515-2.387 5.501-4.25 8.701-5.955 1.56-.831 3.15-1.617 4.758-2.41l.125-.06c1.642-.81 3.3-1.63 4.909-2.497l.645-.35 1.14-.558c3.121-1.526 6.2-3.032 9.187-4.563 2.148-1.101 5.262-1.6 8.698-1.865 1.566-.121 3.147-.19 4.685-.258l.378-.017c1.64-.073 3.238-.149 4.64-.29 2.843-.289 5.693-.27 8.63-.25h.001c.753.005 1.512.01 2.278.01zM38.682 47.084c-6.075 4.454-11.45 9.575-15.538 15.752-5.232 7.905-9.807 18.267-11.064 27.659-.443 3.304-1.022 6.563-1.591 9.762a433.606 433.606 0 00-.837 4.811c-.555 3.343-1.023 6.662-1.253 10.035.35.58.71 1.156 1.083 1.73.43.66.872 1.315 1.327 1.966.357-4.345.995-8.843 1.791-13.532.318-1.871.618-3.727.915-5.566C16 84.323 18.305 70.059 29.423 57.44c.462-.523.923-1.048 1.386-1.574l.002-.002c2.58-2.933 5.183-5.893 7.871-8.78zM10.535 123.52a98.862 98.862 0 01-2.284-3.143c.194 16.922 5.7 31.713 16.369 44.839a323.136 323.136 0 013.352 4.218c3.537 4.501 7.023 8.937 11.149 12.618 2.42 2.159 4.274 4.324 6.113 6.905.542.76 1.37 1.218 2.57 1.654.37.134.703.242 1.059.358l.001.001c.267.086.547.178.864.287.675.232 1.403.509 2.1.892 2.454 1.348 5.19 2.288 8.08 3.186.544.169 1.096.338 1.652.507 2.349.717 4.773 1.457 7.065 2.397 7.94 3.256 15.832 6.154 24.15 6.465l-1.507-.43c-25.212-7.17-48.426-21.736-66.452-41.35-8.03-8.738-12.068-17.573-13.586-27.074-.639-3.994-.83-8.092-.695-12.33zm105.663 84.779c11.065 3.045 22.173 5.721 33.5 7.22 19.956 2.64 41.046 4.709 59.945-2.082 2.724-.979 5.509-1.956 8.334-2.947h.002c9.054-3.175 18.511-6.492 27.636-10.465 11.453-4.987 22.257-10.959 30.891-18.853-1.828.525-3.655 1.025-5.467 1.521h-.001a360.697 360.697 0 00-6.189 1.733c-6.229 1.825-11.845 5.193-17.648 8.673l-.189.114c-5.809 3.484-11.815 7.065-18.555 8.908-24.553 6.713-50.795 6.711-75.775 6.709h-1.317c-11.758 0-23.468-.241-35.167-.531zm183.965-103.846c1.224-2.954 2.27-5.958 2.948-9.166 1.145-5.419-.531-11.39-3.261-17.463-1.355-3.014-2.94-5.99-4.504-8.879l-.544-1.002c-1.367-2.519-2.699-4.974-3.781-7.265-5.348-11.32-17.376-19.029-27.994-25.035-4.512-2.552-11.102-5.213-15.874-5.478-6.22-.344-12.462-1.266-18.609-2.174l-.665-.098c-6.022-.889-11.953-1.744-17.809-2.052a854.457 854.457 0 0010.548 3.238c2.488.745 5.033 1.477 7.611 2.22 10.505 3.024 21.551 6.204 31.502 10.948 12.451 5.935 23.381 14.398 29.684 28.262 4.029 8.865 8.097 18.646 9.965 28.443a62.02 62.02 0 01.783 5.501z" fill="#DBFE01"/></svg>