<svg width="285" height="149" fill="none" xmlns="http://www.w3.org/2000/svg"><path fill="#fff" stroke="#000" stroke-width="4" d="M2 2h281v144.812H2z"/><path d="M78.95 101.113h6.08l3.98 13.76h-4.7l-.52-2.64h-3.56l-.58 2.64h-4.5l3.8-13.76zm4.36 8.66l-1.3-6.02-1.36 6.02h2.66zm11.285 5.42c-1.88 0-3.466-.347-4.76-1.04l1-3.1c1.374.493 2.6.74 3.68.74.587 0 1.013-.067 1.28-.2.28-.147.42-.36.42-.64a.626.626 0 00-.22-.48c-.147-.147-.44-.307-.88-.48s-1.1-.387-1.98-.64c-1.08-.32-1.92-.84-2.52-1.56-.6-.733-.9-1.573-.9-2.52 0-1.467.48-2.573 1.44-3.32.974-.76 2.28-1.14 3.92-1.14.853 0 1.694.093 2.52.28.827.173 1.56.433 2.2.78l-1.08 3.02c-.746-.253-1.4-.433-1.96-.54a7.452 7.452 0 00-1.6-.18c-.88 0-1.32.24-1.32.72 0 .24.14.447.42.62.294.16.887.367 1.78.62 1.4.373 2.46.947 3.18 1.72.72.76 1.08 1.673 1.08 2.74 0 1.48-.48 2.62-1.44 3.42-.96.787-2.38 1.18-4.26 1.18zm7.576-14.08h4.64v5.62h1.44l2.66-5.62h4.62v.9l-3.16 5.92 3.62 6.04v.9h-4.86l-2.96-5.46h-1.36v5.46h-4.64v-13.76zm15.332 0h9.66v3.04h-4.8v2.5h4.38v2.52h-4.38v2.66h4.8v3.04h-9.66v-13.76zm48.965 0h4.32v10.72h4.78v3.04h-9.1v-13.76zm10.762 0h4.62v13.76h-4.62v-13.76z" fill="#000"/><path d="M131.058 114.993c-.707 0-1.26-.193-1.66-.58-.4-.387-.6-.873-.6-1.46 0-.6.206-1.087.62-1.46.413-.373.96-.56 1.64-.56.666 0 1.206.2 1.62.6.413.387.62.86.62 1.42 0 .627-.194 1.127-.58 1.5-.387.36-.94.54-1.66.54zm10.449.2c-1.44 0-2.72-.307-3.84-.92a6.71 6.71 0 01-2.6-2.54c-.613-1.093-.92-2.333-.92-3.72 0-1.4.307-2.647.92-3.74a6.536 6.536 0 012.6-2.54c1.12-.613 2.4-.92 3.84-.92s2.714.307 3.82.92a6.362 6.362 0 012.6 2.54c.627 1.08.94 2.327.94 3.74 0 1.387-.313 2.627-.94 3.72a6.526 6.526 0 01-2.6 2.54c-1.12.613-2.393.92-3.82.92zm0-3.64c.84 0 1.527-.327 2.06-.98.547-.653.82-1.513.82-2.58 0-.707-.126-1.333-.38-1.88-.24-.56-.58-.993-1.02-1.3-.44-.32-.94-.48-1.5-.48-.546 0-1.04.16-1.48.48-.44.307-.78.74-1.02 1.3-.24.547-.36 1.173-.36 1.88 0 1.067.267 1.927.8 2.58.534.653 1.227.98 2.08.98zm9.277-10.44h4.02l5.48 7.42v-7.42h3.58v13.76h-4l-5.52-7.16v7.16h-3.56v-13.76zm33.672 0h4.02l5.48 7.42v-7.42h3.58v13.76h-4l-5.52-7.16v7.16h-3.56v-13.76zm15.684 0h9.66v3.04H205v2.5h4.38v2.52H205v2.66h4.8v3.04h-9.66v-13.76z" fill="#2A2929"/><path fill-rule="evenodd" clip-rule="evenodd" d="M133.885 29.826c-6.296 1.052-14.781 3.509-18.977 6.269-9.412 6.192-9.505 14.208-1.207 19.039 3.378 1.966 2.278 3.212 2.739 6.75.896 6.875 1.695 9.205 4.613 11.938 4.42 4.14 11.099 5.22 21.44 5.197 9.329-.02 16.212-2.123 19.923-5.197 2.569-2.127 4.807-7.596 4.807-11.938 0-3.387-.081-2.556 3.542-4.465 9.014-4.75 10.251-15.172 2.89-21.324-6.404-5.352-26.821-8.434-39.77-6.27zm30.082 3.956c3.693 1.19 6.836 2.884 8.813 4.75l3.074 2.897-4.069-2.486c-9.389-5.736-24.401-6.615-40.019-.669-3.232 1.23-8.722 3.142-12.392 4.255-3.669 1.113-8.232 3.21-9.064 3.958-1.412 1.27-1.187 1.678-1.187 0 0-2.237 5.54-7.837 9.978-10.086 7.782-3.943 14.003-5.038 26.955-4.745 9.749.221 13.314.644 17.911 2.126zm2.025 4.492c4.442 1.397 10.282 5.701 10.282 8.292 0 2.493-2.349 5.876-5.509 7.933-1.574 1.025-3.168 1.864-3.542 1.864-.193 0-.028-.687 0-1.664.026-.929.211-1.896.302-3.316.317-4.953-.46-5.769-2.676-7.81-3.256-2.998-8.698-4.703-16.919-5.299-3.816-.276-6.779-.662-6.583-.856.782-.776 12.135-1.382 16.472-1.017 2.539.213 5.96 1.177 8.173 1.873zm-10.217 3.155c6.072 1.805 9.587 3.563 9.587 6.977v2.137l-3.987-2.137c-11.061-4.438-27.311-4.93-38.41-.477l-3.769 1.795V47.93c0-2.03.391-3.242 1.049-3.247.577-.004 3.873-.964 6.412-2.143 2.539-1.18 6.327-1.81 8.174-2.211 4.619-1.003 15.745-.445 20.944 1.101zm-38.258 9.114v5.02l-3.12-2.507c-1.87-.947-3.291-2.04-3.576-2.779-.63-1.63 1.69-3.79 4.087-3.79 1.435 0 2.609-.359 2.609 4.056zm35.193-2.137c2.446.516 6.472 1.558 8.665 2.655l3.987 1.995-.037 4.363c-.127 15.196-5.666 19.43-24.634 18.831-8.053-.253-9.956-.595-13.544-2.428-2.296-1.174-5.038-3.408-6.094-4.963-1.672-2.465-1.888-3.695-1.679-9.539l.241-6.709 3.35-1.444c7.393-3.583 20.342-4.743 29.745-2.761z" fill="#000"/></svg>