<svg width="334" height="222" viewBox="0 0 334 222" fill="none" xmlns="http://www.w3.org/2000/svg">
<path fill-rule="evenodd" clip-rule="evenodd" d="M171.166 0.312416C189.187 -0.0476685 207.457 -0.412735 225.309 1.16513C231.66 1.72649 237.925 2.90822 244.126 4.07797C247.603 4.73378 251.059 5.38582 254.5 5.92266C255.741 6.11632 256.989 6.30242 258.241 6.48914C265.857 7.62532 273.627 8.78433 281.042 11.809C292.928 16.6574 299.221 24.4498 306.41 33.3505L306.411 33.3516C307.575 34.7926 308.762 36.2627 310 37.754C322.287 52.5516 333.908 70.4831 333.908 91.0968C333.908 105.16 331.185 117.69 325.105 130.327L324.629 131.316C319.499 141.986 313.655 154.141 305.366 162.879C304.431 163.865 303.486 164.952 302.494 166.094L302.457 166.136C301.484 167.257 300.468 168.426 299.412 169.551C297.285 171.818 294.9 174.011 292.147 175.39C289.129 176.903 285.985 178.141 282.794 179.222C281.768 180.279 280.736 181.3 279.709 182.283C270.532 191.054 258.918 197.503 246.812 202.774C237.576 206.796 227.973 210.164 218.899 213.346L218.897 213.347C216.091 214.331 213.335 215.297 210.657 216.259C190.987 223.328 169.207 221.125 149.305 218.492C133.93 216.458 118.94 212.282 104.122 207.988C100.504 207.895 96.8856 207.804 93.2658 207.719C84.1338 207.506 75.6106 204.345 67.4865 201.013C65.3373 200.132 63.0806 199.443 60.7435 198.729L60.7433 198.729L60.7431 198.729C60.1723 198.555 59.5967 198.379 59.0168 198.199C56.1059 197.294 53.1212 196.281 50.3832 194.777C49.9114 194.518 49.3727 194.306 48.7529 194.093C48.5378 194.019 48.287 193.937 48.0238 193.85L48.0235 193.85L48.0188 193.849C47.6074 193.714 47.1659 193.569 46.7826 193.43C45.429 192.94 43.878 192.222 42.7911 190.697C41.0571 188.264 39.3477 186.275 37.1234 184.29C32.7804 180.414 29.0673 175.687 25.4977 171.143L25.4975 171.143C24.4203 169.771 23.3562 168.417 22.2918 167.107C11.0044 153.219 5.24597 137.462 5.24597 119.446C5.24597 118.23 5.28212 117.028 5.34793 115.836C1.84653 109.792 -0.46834 103.12 0.080407 95.3058C0.818923 84.789 3.63874 74.9666 7.96672 65.5127C8.66738 63.9822 9.18594 62.3374 9.74021 60.5793C9.98968 59.788 10.2464 58.9738 10.5302 58.1367C11.4083 55.5467 12.5219 52.8457 14.4733 50.7053C21.4675 43.0337 31.0276 37.2405 39.9188 31.8525C42.2639 30.4314 44.5625 29.0385 46.7551 27.6468C48.3954 26.6057 50.0388 25.5276 51.6941 24.4416L51.6945 24.4414L51.6945 24.4413C57.0742 20.912 62.5802 17.2998 68.5177 14.6052C84.5736 7.31865 101.008 4.71647 117.498 5.00882C129.038 2.28056 141.072 0.68133 152.436 0.604674C158.63 0.562892 164.883 0.437957 171.166 0.312416ZM105.351 8.35337C93.3269 9.28264 81.4269 12.0412 69.7575 17.3371C64.0521 19.9263 58.8153 23.3609 53.4775 26.8617C51.7887 27.9693 50.0898 29.0835 48.3628 30.1797C46.0473 31.6494 43.6641 33.0948 41.2653 34.5498C32.4205 39.9145 23.3619 45.4088 16.6902 52.7265C15.1787 54.3845 14.2243 56.5839 13.3713 59.0999C13.1352 59.7965 12.9037 60.53 12.6673 61.279C12.0863 63.1203 11.4758 65.0548 10.6945 66.7615C6.49139 75.9425 3.78243 85.4139 3.07304 95.5159C2.69399 100.914 3.81813 105.747 5.85406 110.279C6.09038 108.36 6.37967 106.462 6.69263 104.576C6.96818 102.916 7.25986 101.277 7.55075 99.6419L7.55077 99.6418C8.11271 96.4834 8.67175 93.3413 9.10611 90.0966C10.4394 80.1369 15.2358 69.3491 20.6422 61.1801C26.9447 51.6571 36.0483 44.6272 45.8202 38.8047C52.0687 35.0815 58.6818 31.8037 65.0494 28.6864C68.6487 26.7226 72.087 24.6682 75.5283 22.6121L75.5285 22.612L75.5285 22.612L75.5286 22.6119C77.5853 21.3831 79.643 20.1536 81.7369 18.9424C87.519 15.5977 93.4717 12.4581 100.073 10.1199C101.805 9.50636 103.566 8.91695 105.351 8.35337ZM83.1794 21.5737L83.239 21.5392C88.9614 18.2291 94.7293 15.1953 101.075 12.9478C106.43 11.051 112.063 9.3901 117.821 8.01539C125.121 8.16466 132.452 8.89113 139.792 10.0392C130.948 11.1855 122.107 12.3523 113.268 13.5187L113.267 13.5188C108.721 14.1187 104.176 14.7185 99.6309 15.3155C98.8096 15.4234 98.2312 16.1767 98.339 16.998C98.4469 17.8194 99.2002 18.3978 100.022 18.2899C104.571 17.6924 109.119 17.0922 113.667 16.4921C125.637 14.9125 137.603 13.3333 149.576 11.805C162.828 14.497 176.014 18.3237 189.027 22.3618C185.145 22.3343 181.264 22.3272 177.387 22.3201H177.387H177.387C176.575 22.3186 175.764 22.3171 174.954 22.3155C163.568 22.2921 152.222 22.2318 140.927 21.6223C137.206 21.4215 133.495 21.2418 129.787 21.0903C129.342 20.6122 128.617 20.4663 128.006 20.7793C127.856 20.8561 127.704 20.9304 127.55 21.0023C120.399 20.7324 113.25 20.5724 106.044 20.5724C105.325 20.5724 104.597 20.5673 103.864 20.5622H103.863C100.909 20.5416 97.8528 20.5203 94.8325 20.8266C93.5291 20.9588 92.0165 21.0314 90.3621 21.1047L89.9774 21.1217C88.448 21.1891 86.8186 21.2609 85.2014 21.3857C84.5319 21.4373 83.8552 21.4985 83.1794 21.5737ZM158.387 10.6725C172.259 13.9449 186.036 18.2462 199.489 22.5003C202.704 22.5671 205.918 22.6606 209.129 22.7923C215.512 23.0541 221.949 23.9842 228.317 24.924L228.931 25.0147C235.117 25.9281 241.238 26.832 247.319 27.169C252.773 27.4713 259.844 30.3945 264.504 33.031C275.058 39.0014 287.93 47.1111 293.733 59.3951C294.776 61.6034 296.064 63.9769 297.436 66.5058L297.438 66.5088L297.439 66.5101C297.619 66.8425 297.801 67.1775 297.984 67.5153C299.549 70.4047 301.181 73.4673 302.587 76.593C305.378 82.8016 307.397 89.5159 306.046 95.9059C304.915 101.261 302.766 106.193 300.553 110.975C300.656 114.842 300.568 118.72 300.482 122.52V122.521V122.522L300.482 122.524C300.425 125.034 300.368 127.508 300.368 129.923C300.368 131.615 300.413 133.394 300.459 135.21C300.476 135.909 300.494 136.613 300.509 137.32C303.367 134.399 305.7 130.988 307.127 127.153C307.871 125.153 308.5 123.119 309.137 121.04L309.211 120.798C309.821 118.809 310.443 116.78 311.173 114.77C312.011 112.46 312.452 109.998 312.817 107.408C312.908 106.759 312.996 106.097 313.084 105.428C313.34 103.475 313.606 101.457 314.013 99.5039C314.496 97.1836 314.61 94.6979 314.594 92.1165C314.587 90.8862 314.55 89.6515 314.514 88.4071L314.509 88.2287C314.47 86.9309 314.434 85.6226 314.434 84.3383C314.434 83.51 314.456 82.688 314.478 81.8682V81.8678C314.521 80.2821 314.564 78.7049 314.445 77.1075C314.268 74.742 313.742 72.7268 312.513 71.2309C310.987 69.3724 309.683 67.4053 308.447 65.4712C308.197 65.0813 307.951 64.6938 307.707 64.3087L307.703 64.3027L307.702 64.3016C306.723 62.7582 305.767 61.2533 304.722 59.7895C303.278 57.7683 302.611 55.8071 301.919 53.7745L301.916 53.7666C301.867 53.6223 301.818 53.4777 301.768 53.3326C301.275 51.8912 300.239 50.6954 299.03 49.3005C298.861 49.1049 298.688 48.9053 298.512 48.7006C297.446 47.4553 296.451 46.0754 295.497 44.7509C295.197 44.3346 294.9 43.9237 294.607 43.5242C293.35 41.8113 292.107 40.2474 290.668 38.9899C287.466 36.1935 283.511 34.6086 279.244 32.9758L278.71 32.7716C274.677 31.2316 270.387 29.5932 266.755 26.7281C265.126 25.4434 263.004 24.5433 260.643 23.8262C258.934 23.3071 257.196 22.9093 255.486 22.518C254.818 22.3651 254.153 22.2131 253.497 22.0553C248.129 20.7642 242.678 19.2265 237.436 17.3738C236.676 17.1052 235.921 16.8365 235.17 16.5691C228.948 14.354 223 12.2361 216.615 11.0694C212.219 10.2663 207.838 9.48938 203.44 8.82144C197.921 7.98309 192.123 8.36763 186.368 8.8129C185.669 8.86701 184.998 9.0204 184.229 9.21257C184.184 9.22386 184.138 9.23532 184.092 9.24691L183.987 9.27346C183.303 9.44569 182.526 9.64157 181.704 9.75244C179.123 10.1007 176.417 10.0447 173.88 9.99206C172.991 9.97362 172.122 9.95561 171.286 9.95561H171.275H171.264H171.252H171.241H171.23H171.218H171.207H171.196H171.185H171.173H171.162H171.151H171.139H171.128H171.117H171.105H171.094H171.083H171.071H171.06H171.049H171.037H171.026H171.015H171.003H170.992H170.981H170.969H170.958H170.947H170.935H170.924H170.913H170.901H170.89H170.879H170.867H170.856H170.845H170.833H170.822H170.811H170.8H170.788H170.777H170.766H170.754H170.743H170.732H170.72H170.709H170.698H170.686H170.675H170.664H170.652H170.641H170.63H170.618H170.607H170.596H170.584H170.573H170.562H170.55H170.539H170.528H170.516H170.505H170.494H170.482H170.471H170.46H170.449H170.437H170.426H170.415H170.403H170.392H170.381H170.369H170.358H170.347H170.335H170.324H170.313H170.301H170.29H170.279H170.267H170.256H170.245H170.233H170.222H170.211H170.199H170.188H170.177H170.165H170.154H170.143H170.131H170.12H170.109H170.098H170.086H170.075H170.064H170.052H170.041H170.03H170.018H170.007H169.996H169.984H169.973H169.962H169.95H169.939H169.928H169.916H169.905H169.894H169.882H169.871H169.86H169.848H169.837H169.826H169.814H169.803H169.792H169.78H169.769H169.758H169.746H169.735H169.724H169.713H169.701H169.69H169.679H169.667H169.656H169.645H169.633H169.622H169.611H169.599H169.588H169.577H169.565H169.554H169.543H169.531H169.52H169.509H169.497H169.486H169.475H169.463H169.452H169.441H169.429H169.418H169.407H169.395H169.384H169.373H169.361H169.35H169.339H169.328H169.316H169.305H169.294H169.282H169.271H169.26H169.248H169.237H169.226H169.214H169.203H169.192H169.18H169.169H169.158H169.146H169.135H169.124H169.112H169.101H169.09H169.078H169.067H169.056H169.044H169.033H169.022H169.01H168.999H168.988H168.977H168.965H168.954H168.943H168.931H168.92H168.909H168.897H168.886H168.875H168.863H168.852H168.841H168.829H168.818H168.807H168.795H168.784H168.773H168.761H168.75H168.739H168.727H168.716H168.705H168.693H168.682H168.671H168.659H168.648H168.637H168.626H168.614H168.603H168.592H168.58H168.569H168.558H168.546H168.535H168.524H168.512H168.501H168.49H168.478H168.467H168.456H168.444H168.433H168.422H168.41H168.399H168.388H168.376H168.365H168.354H168.342H168.331H168.32H168.308H168.297H168.286H168.274H168.263H168.252H168.241H168.229H168.218H168.207H168.195H168.184H168.173H168.161H168.15H168.139H168.127H168.116H168.105H168.093H168.082H168.071H168.059H168.048H168.037H168.025H168.014H168.003H167.991H167.98H167.969H167.957H167.946H167.935H167.923H167.912H167.901H167.889H167.878H167.867H167.856H167.844H167.833H167.822H167.81H167.799H167.788H167.776H167.765H167.754H167.742H167.731H167.72H167.708H167.697H167.686H167.674H167.663H167.652H167.64H167.629H167.618H167.606H167.595H167.584H167.572H167.561H167.55H167.538H167.527H167.516H167.505H167.493H167.482H167.471H167.459H167.448H167.437H167.425H167.414H167.403H167.391H167.38H167.369H167.357H167.346H167.335H167.323H167.312H167.301H167.289H167.278H167.267H167.255H167.244H167.233H167.221H167.21H167.199H167.187H167.176H167.165H167.154H167.142H167.131H167.12H167.108H167.097H167.086H167.074H167.063H167.052H167.04H167.029H167.018H167.006H166.995H166.984H166.972H166.961H166.95H166.938H166.927H166.916H166.904H166.893H166.882H166.87H166.859H166.848H166.836H166.825H166.814H166.802H166.791H166.78H166.769H166.757H166.746H166.735H166.723H166.712H166.701H166.689H166.678H166.667H166.655H166.644H166.633H166.621H166.61H166.599H166.587H166.576H166.565H166.553H166.542H166.531H166.519H166.508H166.497H166.485H166.474H166.463H166.451H166.44H166.429H166.418H166.406H166.395H166.384H166.372H166.361H166.35H166.338H166.327H166.316H166.304H166.293H166.282H166.27H166.259H166.248H166.236H166.225H166.214H166.202H166.191H166.18H166.168H166.157H166.146H166.134H166.123H166.112H166.1H166.089H166.078H166.066H166.055H166.044H166.033H166.021H166.01H165.999H165.987H165.976H165.965H165.953H165.942H165.931H165.919H165.908H165.897H165.885H165.874H165.863H165.851H165.84H165.829H165.817H165.806H165.795H165.783H165.772H165.761H165.749H165.738H165.727H165.715H165.704H165.693H165.682H165.67H165.659H165.648H165.636H165.625H165.614H165.602H165.591H165.58H165.568H165.557H165.546H165.534H165.523H165.512H165.5H165.489C163.398 9.95561 161.169 10.2745 158.956 10.5912C158.766 10.6184 158.576 10.6455 158.387 10.6725ZM297.553 140.033C297.542 138.505 297.502 136.984 297.463 135.458V135.457V135.455C297.416 133.624 297.368 131.786 297.368 129.923C297.368 127.352 297.427 124.777 297.484 122.207C297.52 120.617 297.556 119.029 297.578 117.447C297.424 117.796 297.272 118.146 297.122 118.496C296.312 120.387 295.817 122.477 295.286 124.719L295.286 124.72C295.19 125.127 295.092 125.539 294.991 125.955C294.354 128.589 293.588 131.386 292.088 133.797C289.755 137.547 286.635 141.22 283.78 144.581C283.25 145.205 282.73 145.818 282.225 146.419C273.235 157.118 260.438 164.221 246.793 169.085C233.14 173.952 218.526 176.618 205.786 178.37C200.279 179.128 194.684 180.08 189.038 181.042L189.038 181.042L189.038 181.042C176.269 183.216 163.245 185.434 150.415 185.533L149.865 185.537C134.26 185.659 118.58 185.781 102.932 184.667C90.4935 183.781 79.5546 181.232 69.3909 176.89C69.5131 177.023 69.6363 177.157 69.7605 177.292L69.9298 177.475L69.9307 177.476C70.4027 177.987 70.8901 178.514 71.3594 179.056C72.4175 180.277 73.4451 181.639 74.2012 183.319C74.2006 183.317 74.2002 183.316 74.1999 183.316C74.1997 183.315 74.1996 183.315 74.1997 183.315C74.1998 183.315 74.2007 183.316 74.2026 183.318C74.222 183.342 74.3476 183.496 74.8025 183.699C75.2986 183.921 75.9713 184.107 76.7545 184.262C77.5268 184.415 78.3345 184.525 79.0836 184.623L79.3212 184.654C79.9512 184.735 80.5832 184.817 81.0277 184.914C82.2467 185.181 83.4192 185.454 84.5799 185.725L84.5837 185.726L84.5853 185.727C86.0888 186.078 87.5727 186.424 89.1128 186.745C92.7178 187.495 96.2892 188.078 99.9199 188.406C101.551 188.553 103.128 188.891 104.61 189.214L104.758 189.246L104.759 189.247C106.212 189.564 107.573 189.86 108.952 190.01C112.272 190.371 115.617 190.878 118.931 191.38C120.39 191.601 121.843 191.821 123.285 192.027C128.037 192.707 132.732 193.248 137.407 193.248C140.641 193.248 143.867 193.335 147.072 193.425L147.554 193.439C150.602 193.525 153.629 193.611 156.657 193.627C159.332 193.641 161.99 193.456 164.71 193.262L164.881 193.25C167.528 193.061 170.235 192.868 172.972 192.868C174.971 192.868 176.931 193.059 178.81 193.241H178.81L178.985 193.258C180.942 193.448 182.817 193.624 184.717 193.606C185.408 193.599 186.098 193.593 186.788 193.587L186.804 193.587H186.804C194.873 193.513 202.907 193.439 210.902 192.893C212.351 192.794 213.633 192.64 214.929 192.288C218.723 191.259 222.412 189.996 226.153 188.715C227.982 188.09 229.823 187.459 231.695 186.85C234.183 186.04 236.55 184.909 239.012 183.724L239.131 183.667L239.131 183.667C241.527 182.515 244.018 181.316 246.654 180.444C257.841 176.744 267.803 168.903 277.06 161.137C278.488 159.94 279.631 158.564 280.781 157.059C281.044 156.715 281.309 156.361 281.58 156L281.587 155.991L281.588 155.989C282.474 154.808 283.412 153.556 284.471 152.371C288.534 147.827 292.995 143.921 297.553 140.033ZM61.6452 173.157C63.1763 174.492 64.6121 175.933 65.9285 177.5C66.4692 178.144 67.0242 178.75 67.5561 179.326L67.725 179.509L67.7255 179.51C68.2021 180.026 68.6559 180.517 69.0919 181.02C70.0605 182.138 70.8793 183.247 71.4656 184.55C71.9086 185.534 72.8209 186.099 73.5765 186.437C74.3751 186.795 75.3028 187.033 76.1712 187.205C77.0505 187.379 77.9457 187.5 78.6962 187.598L78.9021 187.625L78.9024 187.625C79.5879 187.714 80.0786 187.777 80.3867 187.845C81.5 188.088 82.6545 188.357 83.8208 188.629L83.823 188.63L83.8233 188.63C85.3848 188.994 86.9675 189.362 88.5014 189.682C92.1893 190.449 95.8779 191.053 99.6504 191.393C101.069 191.521 102.473 191.819 103.971 192.145L104.172 192.189C105.583 192.497 107.085 192.825 108.627 192.993C111.883 193.347 115.125 193.838 118.407 194.335L118.407 194.335L118.408 194.335C119.882 194.558 121.365 194.783 122.861 194.997C127.651 195.682 132.514 196.248 137.407 196.248C140.593 196.248 143.779 196.333 146.987 196.424L147.479 196.438C150.519 196.524 153.578 196.611 156.641 196.627C159.448 196.642 162.218 196.447 164.923 196.254L165.049 196.245C167.728 196.055 170.343 195.868 172.972 195.868C174.823 195.868 176.656 196.046 178.576 196.233L178.576 196.233L178.695 196.244C180.635 196.433 182.663 196.626 184.746 196.606C185.445 196.599 186.145 196.593 186.845 196.586H186.845C194.897 196.513 203.018 196.439 211.107 195.886C212.641 195.781 214.144 195.61 215.715 195.183C219.601 194.129 223.45 192.812 227.245 191.513L227.246 191.513C229.051 190.895 230.845 190.282 232.623 189.703C235.332 188.821 237.876 187.6 240.312 186.428L240.351 186.409C242.803 185.23 245.145 184.103 247.596 183.293C259.396 179.39 269.756 171.181 278.988 163.436C280.674 162.022 281.978 160.433 283.165 158.88C283.466 158.486 283.756 158.099 284.042 157.717C284.911 156.559 285.743 155.45 286.708 154.37C290.048 150.634 293.683 147.328 297.503 144.028C297.337 148.542 296.727 152.865 295.026 156.817C291.945 163.978 286.725 170.779 281.141 176.614C277.637 177.772 274.049 178.755 270.433 179.745C268.296 180.33 266.15 180.918 264.005 181.546C257.403 183.48 251.502 187.02 245.805 190.438L245.805 190.438L245.469 190.639C239.607 194.155 233.944 197.51 227.666 199.226C203.506 205.832 177.611 205.831 152.504 205.829L151.365 205.829C136.63 205.829 121.983 205.45 107.292 205.069H107.292L107.29 205.069L104.589 204.999C103.546 204.697 102.503 204.394 101.459 204.091C98.3396 203.184 95.2173 202.277 92.0882 201.387C67.4308 194.375 44.6907 180.116 27.0247 160.893C19.3773 152.572 15.6143 144.273 14.1922 135.375C13.7736 132.756 13.5566 130.078 13.506 127.324C13.7286 127.602 13.9515 127.88 14.1745 128.157C14.6817 128.787 15.1887 129.413 15.6936 130.036L15.694 130.037L15.6944 130.037C17.7087 132.525 19.6906 134.972 21.5262 137.468C21.9514 138.046 22.3755 138.624 22.7996 139.202C26.6197 144.41 30.4267 149.601 34.8473 154.473C35.519 155.214 36.2649 155.943 37.0276 156.656C37.1618 156.959 37.3966 157.219 37.7142 157.382C37.7905 157.421 37.8667 157.461 37.9427 157.5C38.1437 157.684 38.3442 157.866 38.5434 158.047C39.1185 158.569 39.6817 159.081 40.2082 159.58C41.9634 161.242 43.4446 162.872 44.3474 164.723C44.7105 165.468 45.6085 165.777 46.3531 165.414C46.982 165.107 47.3004 164.419 47.1653 163.764C51.9044 167.37 56.7002 170.495 61.6452 173.157ZM63.3568 170.67C60.4655 168.187 57.2983 166.079 54.0204 164.227C51.7304 162.933 49.5772 161.444 47.3648 159.914L47.1656 159.776C47.0172 159.674 46.8686 159.571 46.7196 159.468C46.3167 159.19 45.9116 158.911 45.5036 158.633C43.9347 157.353 42.3686 156.017 40.8015 154.624C26.9279 142.296 20.1473 127.891 20.1473 109.216C20.1473 96.5588 24.3791 84.033 31.984 74.0077C33.0801 72.5629 34.2244 71.0958 35.3877 69.6043L35.3891 69.6025L35.3899 69.6016C40.4083 63.1676 45.7811 56.2794 49.1672 48.7572C50.5455 45.6953 52.4227 44.1851 54.6382 43.3798C56.9625 42.5349 59.7401 42.4309 63.0066 42.4309C63.332 42.4309 63.6332 42.3273 63.8789 42.1513C70.8878 41.732 77.2527 38.9458 83.3459 36.2785C84.135 35.9331 84.9195 35.5897 85.7002 35.2537C92.0776 32.509 99.0472 31.1583 106.025 30.241C106.677 30.1553 107.124 30.0063 107.542 29.7886C107.671 29.7215 107.808 29.6408 107.906 29.5833L107.949 29.5583L107.976 29.5427C108.087 29.4779 108.195 29.419 108.329 29.357C108.903 29.0924 109.582 28.9382 110.391 28.8236C110.767 28.7703 111.148 28.7284 111.553 28.6839L111.553 28.6839L111.553 28.6838L111.638 28.6746C112.064 28.6276 112.518 28.5767 112.965 28.5079C114.744 28.2344 116.668 27.5665 118.281 27.0067C118.528 26.9208 118.768 26.8375 118.999 26.7585C120.18 26.3548 121.403 26.0385 122.692 25.705L122.693 25.705L122.693 25.7049C123.148 25.5871 123.611 25.4673 124.084 25.3407C125.418 24.9833 126.799 24.5781 128.124 24.0265C132.329 24.1893 136.539 24.3899 140.765 24.6179C152.148 25.2322 163.565 25.2921 174.947 25.3155C175.752 25.3171 176.556 25.3186 177.36 25.3201L177.365 25.3201L177.369 25.3201C184.593 25.3333 191.8 25.3465 198.99 25.4907L200.663 26.0198C207.083 28.0514 213.452 30.067 219.758 31.9527C222.313 32.7169 224.905 33.4632 227.511 34.2141C237.996 37.234 248.735 40.3273 258.44 44.9536C270.499 50.7023 280.769 58.7392 286.684 71.7498C290.702 80.59 294.637 90.0933 296.433 99.5128C297.109 103.054 297.417 106.673 297.536 110.337C297.422 110.582 297.308 110.828 297.193 111.074L297.136 111.197C296.207 113.19 295.264 115.214 294.364 117.315C293.443 119.466 292.881 121.849 292.354 124.082L292.353 124.082C292.26 124.477 292.168 124.867 292.075 125.25C291.439 127.881 290.761 130.251 289.54 132.212C287.336 135.756 284.387 139.229 281.529 142.597L281.529 142.597C280.99 143.231 280.455 143.862 279.928 144.489C271.411 154.625 259.161 161.491 245.786 166.259C232.418 171.025 218.039 173.657 205.377 175.398C199.662 176.184 193.951 177.157 188.246 178.13C175.596 180.285 162.974 182.436 150.391 182.533L149.895 182.537C134.253 182.659 118.674 182.78 103.145 181.674C88.0617 180.6 75.2723 177.029 63.3568 170.67ZM300.554 141.409C304.581 137.86 307.994 133.425 309.939 128.199C310.718 126.105 311.37 123.991 312.005 121.92L312.072 121.703L312.072 121.701C312.688 119.694 313.29 117.73 313.993 115.793C314.942 113.178 315.417 110.462 315.788 107.827C315.888 107.117 315.98 106.417 316.071 105.726C316.323 103.805 316.568 101.95 316.95 100.116C317.497 97.4886 317.61 94.7567 317.594 92.0983C317.586 90.8324 317.549 89.566 317.513 88.3307L317.507 88.1407C317.469 86.8384 317.434 85.5722 317.434 84.3383C317.434 83.6752 317.453 82.9414 317.473 82.1674L317.473 82.1638C317.518 80.4895 317.567 78.627 317.436 76.8836C317.241 74.2749 316.636 71.5246 314.831 69.3269C313.424 67.6135 312.2 65.7724 310.974 63.8551C310.738 63.4855 310.501 63.1121 310.262 62.7362L310.256 62.7269L310.256 62.7264C309.272 61.176 308.261 59.5833 307.163 58.0457C305.983 56.3943 305.447 54.8233 304.73 52.7232L304.607 52.3613C303.908 50.3205 302.443 48.6433 301.269 47.3C301.103 47.1097 300.942 46.9262 300.791 46.7492C299.814 45.6085 298.923 44.3733 297.987 43.0743C297.673 42.6394 297.355 42.1973 297.026 41.7492C295.746 40.0056 294.343 38.2168 292.641 36.7304C288.98 33.5325 284.529 31.7858 280.316 30.1739L279.93 30.0261C275.779 28.4392 271.877 26.9473 268.613 24.3725C266.555 22.7494 264.02 21.7165 261.515 20.9557C259.698 20.4038 257.8 19.9694 256.056 19.5704L256.056 19.5704C255.412 19.4229 254.789 19.2803 254.199 19.1384C248.905 17.8652 243.557 16.3553 238.436 14.5453C237.68 14.2783 236.926 14.0096 236.172 13.7409C229.978 11.5346 223.793 9.33148 217.154 8.11828C212.751 7.31382 208.334 6.53036 203.891 5.85546C197.984 4.95819 191.856 5.37927 186.137 5.82184C185.165 5.89709 184.28 6.10755 183.502 6.30209L183.26 6.36257C182.557 6.5393 181.947 6.6925 181.303 6.77937C178.971 7.09403 176.616 7.04545 174.154 6.99466C173.215 6.9753 172.261 6.95561 171.286 6.95561H171.275H171.264H171.252H171.241H171.23H171.218H171.207H171.196H171.185H171.173H171.162H171.151H171.139H171.128H171.117H171.105H171.094H171.083H171.071H171.06H171.049H171.037H171.026H171.015H171.003H170.992H170.981H170.969H170.958H170.947H170.935H170.924H170.913H170.901H170.89H170.879H170.867H170.856H170.845H170.833H170.822H170.811H170.8H170.788H170.777H170.766H170.754H170.743H170.732H170.72H170.709H170.698H170.686H170.675H170.664H170.652H170.641H170.63H170.618H170.607H170.596H170.584H170.573H170.562H170.55H170.539H170.528H170.516H170.505H170.494H170.482H170.471H170.46H170.449H170.437H170.426H170.415H170.403H170.392H170.381H170.369H170.358H170.347H170.335H170.324H170.313H170.301H170.29H170.279H170.267H170.256H170.245H170.233H170.222H170.211H170.199H170.188H170.177H170.165H170.154H170.143H170.131H170.12H170.109H170.098H170.086H170.075H170.064H170.052H170.041H170.03H170.018H170.007H169.996H169.984H169.973H169.962H169.95H169.939H169.928H169.916H169.905H169.894H169.882H169.871H169.86H169.848H169.837H169.826H169.814H169.803H169.792H169.78H169.769H169.758H169.746H169.735H169.724H169.713H169.701H169.69H169.679H169.667H169.656H169.645H169.633H169.622H169.611H169.599H169.588H169.577H169.565H169.554H169.543H169.531H169.52H169.509H169.497H169.486H169.475H169.463H169.452H169.441H169.429H169.418H169.407H169.395H169.384H169.373H169.361H169.35H169.339H169.328H169.316H169.305H169.294H169.282H169.271H169.26H169.248H169.237H169.226H169.214H169.203H169.192H169.18H169.169H169.158H169.146H169.135H169.124H169.112H169.101H169.09H169.078H169.067H169.056H169.044H169.033H169.022H169.01H168.999H168.988H168.977H168.965H168.954H168.943H168.931H168.92H168.909H168.897H168.886H168.875H168.863H168.852H168.841H168.829H168.818H168.807H168.795H168.784H168.773H168.761H168.75H168.739H168.727H168.716H168.705H168.693H168.682H168.671H168.659H168.648H168.637H168.626H168.614H168.603H168.592H168.58H168.569H168.558H168.546H168.535H168.524H168.512H168.501H168.49H168.478H168.467H168.456H168.444H168.433H168.422H168.41H168.399H168.388H168.376H168.365H168.354H168.342H168.331H168.32H168.308H168.297H168.286H168.274H168.263H168.252H168.241H168.229H168.218H168.207H168.195H168.184H168.173H168.161H168.15H168.139H168.127H168.116H168.105H168.093H168.082H168.071H168.059H168.048H168.037H168.025H168.014H168.003H167.991H167.98H167.969H167.957H167.946H167.935H167.923H167.912H167.901H167.889H167.878H167.867H167.856H167.844H167.833H167.822H167.81H167.799H167.788H167.776H167.765H167.754H167.742H167.731H167.72H167.708H167.697H167.686H167.674H167.663H167.652H167.64H167.629H167.618H167.606H167.595H167.584H167.572H167.561H167.55H167.538H167.527H167.516H167.505H167.493H167.482H167.471H167.459H167.448H167.437H167.425H167.414H167.403H167.391H167.38H167.369H167.357H167.346H167.335H167.323H167.312H167.301H167.289H167.278H167.267H167.255H167.244H167.233H167.221H167.21H167.199H167.187H167.176H167.165H167.154H167.142H167.131H167.12H167.108H167.097H167.086H167.074H167.063H167.052H167.04H167.029H167.018H167.006H166.995H166.984H166.972H166.961H166.95H166.938H166.927H166.916H166.904H166.893H166.882H166.87H166.859H166.848H166.836H166.825H166.814H166.802H166.791H166.78H166.769H166.757H166.746H166.735H166.723H166.712H166.701H166.689H166.678H166.667H166.655H166.644H166.633H166.621H166.61H166.599H166.587H166.576H166.565H166.553H166.542H166.531H166.519H166.508H166.497H166.485H166.474H166.463H166.451H166.44H166.429H166.418H166.406H166.395H166.384H166.372H166.361H166.35H166.338H166.327H166.316H166.304H166.293H166.282H166.27H166.259H166.248H166.236H166.225H166.214H166.202H166.191H166.18H166.168H166.157H166.146H166.134H166.123H166.112H166.1H166.089H166.078H166.066H166.055H166.044H166.033H166.021H166.01H165.999H165.987H165.976H165.965H165.953H165.942H165.931H165.919H165.908H165.897H165.885H165.874H165.863H165.851H165.84H165.829H165.817H165.806H165.795H165.783H165.772H165.761H165.749H165.738H165.727H165.715H165.704H165.693H165.682H165.67H165.659H165.648H165.636H165.625H165.614H165.602H165.591H165.58H165.568H165.557H165.546H165.534H165.523H165.512H165.5H165.489C163.164 6.95561 160.615 7.32093 158.348 7.64577C157.608 7.75186 156.898 7.85363 156.236 7.93695C154.052 8.21161 151.869 8.4883 149.686 8.7667C148.237 8.47528 146.787 8.19747 145.338 7.93451C140.003 6.96693 134.656 6.19779 129.306 5.68812C137.098 4.38929 144.934 3.65535 152.457 3.60461C158.74 3.56222 165.048 3.43625 171.364 3.31014C189.338 2.95123 207.369 2.59117 225.045 4.15347C231.274 4.70409 237.253 5.83435 243.337 6.98432C246.846 7.64776 250.39 8.31776 254.037 8.8868C255.315 9.08611 256.585 9.27614 257.849 9.46509C265.483 10.6068 272.855 11.7094 279.909 14.5867C291.033 19.1246 296.823 26.2792 304.02 35.1727L304.022 35.175L304.025 35.1793C305.2 36.6313 306.413 38.1296 307.692 39.6705C319.897 54.369 330.908 71.5961 330.908 91.0968C330.908 104.731 328.277 116.813 322.401 129.026L322.013 129.833C316.815 140.643 311.148 152.425 303.19 160.815C302.202 161.856 301.213 162.994 300.229 164.126L300.21 164.149L300.208 164.151L300.207 164.152C299.223 165.285 298.24 166.416 297.225 167.498C295.168 169.689 293.074 171.57 290.803 172.708C289.629 173.297 288.437 173.842 287.23 174.35C291.46 169.379 295.271 163.839 297.782 158.002C299.718 153.502 300.348 148.686 300.509 143.925C300.537 143.094 300.551 142.254 300.554 141.409ZM106.044 23.5724C110.248 23.5724 114.434 23.6272 118.615 23.7268C118.418 23.7894 118.223 23.8536 118.029 23.9197C117.775 24.0067 117.52 24.0948 117.265 24.1828C115.626 24.7501 113.995 25.3143 112.509 25.5428C112.135 25.6005 111.741 25.6451 111.31 25.6926L111.216 25.7028L111.216 25.7029L111.216 25.7029C110.82 25.7463 110.395 25.7931 109.97 25.8533C109.056 25.9827 108.039 26.1869 107.072 26.633C106.823 26.7479 106.628 26.8561 106.472 26.9464C106.425 26.9738 106.387 26.9964 106.354 27.0157L106.331 27.029L106.331 27.029C106.256 27.0729 106.212 27.0987 106.156 27.128C106.078 27.1687 105.973 27.2221 105.634 27.2666C98.563 28.1961 91.2709 29.5902 84.5142 32.4981C83.7234 32.8384 82.9391 33.1808 82.1597 33.5211C75.4706 36.4411 69.1385 39.2053 62.0821 39.2053C61.783 39.2053 61.5044 39.2929 61.2704 39.4437C58.621 39.4907 55.9832 39.6989 53.6134 40.5603C50.6169 41.6495 48.1336 43.7446 46.4316 47.5257C43.2089 54.6849 38.121 61.2131 33.1185 67.6317C31.9301 69.1565 30.7465 70.6752 29.5939 72.1946C21.5938 82.7408 17.1473 95.9031 17.1473 109.216C17.1473 117.493 18.4309 124.99 21.0089 131.861C20.0178 130.609 19.0097 129.364 18.0064 128.125L18.0043 128.123L18.0018 128.119C17.5029 127.503 17.0051 126.889 16.5111 126.275C15.5139 125.037 14.5297 123.8 13.5742 122.557C13.809 117.294 14.5444 111.735 15.5579 105.769C15.8784 103.883 16.1798 102.027 16.4765 100.2C18.9874 84.7378 21.1604 71.3561 31.6739 59.4252C32.1344 58.9026 32.5942 58.38 33.0536 57.8577C37.6749 52.6042 42.2655 47.3855 47.2694 42.635C49.7839 40.2478 52.7702 38.3858 55.9701 36.6798C57.5292 35.8485 59.1208 35.0635 60.7282 34.2708L60.8531 34.2092C62.495 33.3993 64.1531 32.5798 65.7619 31.7128C65.9772 31.5967 66.1921 31.4802 66.4067 31.3633L67.5473 30.8054C70.6682 29.2792 73.7479 27.7731 76.7342 26.2422C78.8825 25.1409 81.9955 24.6419 85.4322 24.3768C86.9975 24.256 88.5789 24.1863 90.1169 24.1185L90.1171 24.1184L90.4949 24.1018C92.1358 24.029 93.7331 23.9535 95.1351 23.8113C97.978 23.523 100.828 23.5423 103.765 23.5622L103.766 23.5622C104.519 23.5673 105.278 23.5724 106.044 23.5724ZM38.6824 47.0842C32.6066 51.5382 27.232 56.6588 23.1439 62.8358C17.9119 70.7414 13.3368 81.1034 12.0796 90.4947C11.6372 93.7992 11.0578 97.0575 10.4888 100.257C10.2009 101.876 9.91561 103.48 9.65214 105.068C9.09721 108.411 8.62901 111.73 8.39884 115.103C8.7481 115.683 9.10976 116.259 9.48242 116.833C9.91141 117.493 10.3543 118.148 10.8089 118.799C11.1659 114.454 11.8036 109.956 12.6003 105.267C12.9181 103.396 13.2179 101.54 13.5152 99.7006L13.5152 99.7005C15.9999 84.3232 18.3047 70.0591 29.4231 57.4418C29.8846 56.9181 30.3464 56.3931 30.809 55.8671L30.8105 55.8655L30.8106 55.8653C33.3906 52.932 35.9938 49.9724 38.6824 47.0842ZM10.5354 123.519C9.75376 122.484 8.9889 121.437 8.25129 120.376C8.4455 137.298 13.9514 152.089 24.6199 165.215C25.7564 166.613 26.8669 168.026 27.9723 169.433C31.5093 173.934 34.9953 178.37 39.1208 182.051C41.5401 184.21 43.3946 186.375 45.2341 188.956C45.7758 189.716 46.6031 190.174 47.8048 190.61C48.1744 190.744 48.5071 190.852 48.8627 190.968L48.863 190.968L48.8641 190.969C49.1309 191.055 49.4106 191.147 49.7283 191.256C50.403 191.488 51.1313 191.765 51.8275 192.148C54.282 193.496 57.0185 194.436 59.9076 195.334C60.4523 195.503 61.0041 195.672 61.5602 195.841C63.9086 196.558 66.3335 197.298 68.6248 198.238C76.5649 201.494 84.4567 204.392 92.7751 204.703C92.2724 204.559 91.7699 204.416 91.2676 204.273C66.0565 197.103 42.8418 182.537 24.8158 162.923C16.7852 154.185 12.7483 145.35 11.2298 135.849C10.5914 131.855 10.4006 127.757 10.5354 123.519ZM116.198 208.298C127.263 211.343 138.371 214.019 149.698 215.518C169.654 218.158 190.744 220.227 209.643 213.436C212.367 212.457 215.152 211.48 217.977 210.489L217.979 210.489C227.033 207.314 236.49 203.997 245.615 200.024C257.068 195.037 267.872 189.065 276.506 181.171C274.678 181.696 272.851 182.196 271.039 182.692L271.038 182.692L271.038 182.692C268.947 183.264 266.877 183.831 264.849 184.425C258.62 186.25 253.004 189.618 247.201 193.098L247.012 193.212C241.203 196.696 235.197 200.277 228.457 202.12C203.904 208.833 177.662 208.831 152.682 208.829L151.365 208.829C139.607 208.829 127.897 208.588 116.198 208.298ZM300.163 104.452C301.387 101.498 302.433 98.4939 303.111 95.2856C304.256 89.867 302.58 83.8955 299.85 77.8232C298.495 74.8086 296.91 71.8321 295.346 68.944C295.164 68.6089 294.983 68.2747 294.802 67.9417C293.435 65.4231 292.103 62.9679 291.021 60.6766C285.673 49.3573 273.645 41.6484 263.027 35.6422C258.515 33.0898 251.925 30.4289 247.153 30.1644C240.933 29.8197 234.691 28.8978 228.544 27.99L228.544 27.9899L227.879 27.8918C221.857 27.0031 215.926 26.1477 210.07 25.8397C213.615 26.9498 217.132 28.0362 220.618 29.0785C223.106 29.8226 225.651 30.5553 228.229 31.2974L228.229 31.2976C238.734 34.3218 249.78 37.5018 259.731 42.2455C272.182 48.181 283.112 56.6436 289.415 70.5083C293.444 79.373 297.512 89.1542 299.38 98.9509C299.726 100.763 299.979 102.6 300.163 104.452Z" fill="#DBFE01"/>
</svg>
