<svg width="285" height="149" viewBox="0 0 285 149" fill="none" xmlns="http://www.w3.org/2000/svg">
<rect x="2" y="2" width="281" height="144.812" fill="white" stroke="black" stroke-width="4"/>
<path d="M78.9508 101.113H85.0308L89.0108 114.873H84.3108L83.7908 112.233H80.2308L79.6508 114.873H75.1508L78.9508 101.113ZM83.3108 109.773L82.0108 103.753L80.6508 109.773H83.3108ZM94.5952 115.193C92.7152 115.193 91.1285 114.846 89.8352 114.153L90.8352 111.053C92.2085 111.546 93.4352 111.793 94.5152 111.793C95.1018 111.793 95.5285 111.726 95.7952 111.593C96.0752 111.446 96.2152 111.233 96.2152 110.953C96.2152 110.766 96.1418 110.606 95.9952 110.473C95.8485 110.326 95.5552 110.166 95.1152 109.993C94.6752 109.82 94.0152 109.606 93.1352 109.353C92.0552 109.033 91.2152 108.513 90.6152 107.793C90.0152 107.06 89.7152 106.22 89.7152 105.273C89.7152 103.806 90.1952 102.7 91.1552 101.953C92.1285 101.193 93.4352 100.813 95.0752 100.813C95.9285 100.813 96.7685 100.906 97.5952 101.093C98.4218 101.266 99.1552 101.526 99.7952 101.873L98.7152 104.893C97.9685 104.64 97.3152 104.46 96.7552 104.353C96.2085 104.233 95.6752 104.173 95.1552 104.173C94.2752 104.173 93.8352 104.413 93.8352 104.893C93.8352 105.133 93.9752 105.34 94.2552 105.513C94.5485 105.673 95.1418 105.88 96.0352 106.133C97.4352 106.506 98.4952 107.08 99.2152 107.853C99.9352 108.613 100.295 109.526 100.295 110.593C100.295 112.073 99.8152 113.213 98.8552 114.013C97.8952 114.8 96.4752 115.193 94.5952 115.193ZM102.171 101.113H106.811V106.733H108.251L110.911 101.113H115.531V102.013L112.371 107.933L115.991 113.973V114.873H111.131L108.171 109.413H106.811V114.873H102.171V101.113ZM117.503 101.113H127.163V104.153H122.363V106.653H126.743V109.173H122.363V111.833H127.163V114.873H117.503V101.113ZM166.468 101.113H170.788V111.833H175.568V114.873H166.468V101.113ZM177.23 101.113H181.85V114.873H177.23V101.113Z" fill="black"/>
<path d="M131.058 114.993C130.351 114.993 129.798 114.8 129.398 114.413C128.998 114.026 128.798 113.54 128.798 112.953C128.798 112.353 129.004 111.866 129.418 111.493C129.831 111.12 130.378 110.933 131.058 110.933C131.724 110.933 132.264 111.133 132.678 111.533C133.091 111.92 133.298 112.393 133.298 112.953C133.298 113.58 133.104 114.08 132.718 114.453C132.331 114.813 131.778 114.993 131.058 114.993ZM141.507 115.193C140.067 115.193 138.787 114.886 137.667 114.273C136.561 113.66 135.694 112.813 135.067 111.733C134.454 110.64 134.147 109.4 134.147 108.013C134.147 106.613 134.454 105.366 135.067 104.273C135.694 103.18 136.561 102.333 137.667 101.733C138.787 101.12 140.067 100.813 141.507 100.813C142.947 100.813 144.221 101.12 145.327 101.733C146.447 102.333 147.314 103.18 147.927 104.273C148.554 105.353 148.867 106.6 148.867 108.013C148.867 109.4 148.554 110.64 147.927 111.733C147.314 112.813 146.447 113.66 145.327 114.273C144.207 114.886 142.934 115.193 141.507 115.193ZM141.507 111.553C142.347 111.553 143.034 111.226 143.567 110.573C144.114 109.92 144.387 109.06 144.387 107.993C144.387 107.286 144.261 106.66 144.007 106.113C143.767 105.553 143.427 105.12 142.987 104.813C142.547 104.493 142.047 104.333 141.487 104.333C140.941 104.333 140.447 104.493 140.007 104.813C139.567 105.12 139.227 105.553 138.987 106.113C138.747 106.66 138.627 107.286 138.627 107.993C138.627 109.06 138.894 109.92 139.427 110.573C139.961 111.226 140.654 111.553 141.507 111.553ZM150.784 101.113H154.804L160.284 108.533V101.113H163.864V114.873H159.864L154.344 107.713V114.873H150.784V101.113ZM184.456 101.113H188.476L193.956 108.533V101.113H197.536V114.873H193.536L188.016 107.713V114.873H184.456V101.113ZM200.14 101.113H209.8V104.153H205V106.653H209.38V109.173H205V111.833H209.8V114.873H200.14V101.113Z" fill="#2A2929"/>
<path fill-rule="evenodd" clip-rule="evenodd" d="M133.885 29.8258C127.589 30.8779 119.104 33.3346 114.908 36.095C105.496 42.2871 105.403 50.3033 113.701 55.1339C117.079 57.0998 115.979 58.3462 116.44 61.8845C117.336 68.7586 118.135 71.0888 121.053 73.8217C125.473 77.962 132.152 79.0411 142.493 79.0194C151.822 78.9994 158.705 76.8957 162.416 73.8217C164.985 71.6949 167.223 66.2257 167.223 61.8845C167.223 58.4971 167.142 59.3283 170.765 57.4191C179.779 52.6694 181.016 42.247 173.655 36.095C167.251 30.7425 146.834 27.6606 133.885 29.8258ZM163.967 33.7823C167.66 34.9728 170.803 36.6661 172.78 38.5311L175.854 41.4292L171.785 38.943C162.396 33.207 147.384 32.3283 131.766 38.2744C128.534 39.5041 123.044 41.4158 119.374 42.5288C115.705 43.6419 111.142 45.7395 110.31 46.4873C108.898 47.7563 109.123 48.1648 109.123 46.4873C109.123 44.2496 114.663 38.6504 119.101 36.401C126.883 32.4583 133.104 31.3628 146.056 31.6563C155.805 31.8772 159.37 32.2999 163.967 33.7823ZM165.992 38.2744C170.434 39.6708 176.274 43.9753 176.274 46.5657C176.274 49.0594 173.925 52.4418 170.765 54.4994C169.191 55.5241 167.597 56.3628 167.223 56.3628C167.03 56.3628 167.195 55.6763 167.223 54.6989C167.249 53.7704 167.434 52.8033 167.525 51.3825C167.842 46.4302 167.065 45.6144 164.849 43.5735C161.593 40.5746 156.151 38.8696 147.93 38.2744C144.114 37.9976 141.151 37.6124 141.347 37.4181C142.129 36.6419 153.482 36.0358 157.819 36.401C160.358 36.6144 163.779 37.5782 165.992 38.2744ZM155.775 41.4292C161.847 43.2342 165.362 44.9917 165.362 48.4057V50.5434L161.375 48.4057C150.314 43.9678 134.064 43.4768 122.965 47.9289L119.196 49.7243V47.9289C119.196 45.8987 119.587 44.6873 120.245 44.6823C120.822 44.6782 124.118 43.7184 126.657 42.5387C129.196 41.3581 132.984 40.7296 134.831 40.3277C139.45 39.3248 150.576 39.8834 155.775 41.4292ZM117.517 50.5434V55.5632L114.397 53.0562C112.527 52.1091 111.106 51.0165 110.821 50.277C110.191 48.6463 112.511 46.4873 114.908 46.4873C116.343 46.4873 117.517 46.128 117.517 50.5434ZM152.71 48.4057C155.156 48.9218 159.182 49.964 161.375 51.0611L165.362 53.0562L165.325 57.4191C165.198 72.6145 159.659 76.849 140.691 76.2504C132.638 75.9969 130.735 75.6551 127.147 73.8217C124.851 72.6479 122.109 70.4143 121.053 68.8586C119.381 66.3941 119.165 65.1635 119.374 59.32L119.615 52.611L122.965 51.167C130.358 47.5837 143.307 46.424 152.71 48.4057Z" fill="black"/>
</svg>
